<?xml version="1.0" encoding="UTF-8"?>
<svg width="24px" height="23px" viewBox="0 0 24 23" version="1.1" xmlns="http://www.w3.org/2000/svg" xmlns:xlink="http://www.w3.org/1999/xlink">
    <!-- Generator: sketchtool 63.1 (101010) - https://sketch.com -->
    <title>A207038F-F002-466A-9F7E-3FE1F28B2E6C</title>
    <desc>Created with sketchtool.</desc>
    <defs>
        <polygon id="path-1" points="0 0.552 23.9999077 0.552 23.9999077 5.338576 0 5.338576"></polygon>
        <polygon id="path-3" points="0 22.448 24 22.448 24 0.92 0 0.92"></polygon>
    </defs>
    <g id="Page-1" stroke="none" stroke-width="1" fill="none" fill-rule="evenodd">
        <g id="Artboard-Copy-35" transform="translate(-983.000000, -3572.000000)">
            <g id="Cadence-Icon-Copy-3" transform="translate(983.000000, 3572.000000)">
                <g id="Group-6">
                    <g id="Group-3" transform="translate(0.000000, 0.368000)">
                        <mask id="mask-2" fill="white">
                            <use xlink:href="#path-1"></use>
                        </mask>
                        <g id="Clip-2"></g>
                        <path d="M3.59990769,1.747816 C4.2636,1.747816 4.79990769,2.282336 4.79990769,2.943816 C4.79990769,3.605296 4.2636,4.139816 3.59990769,4.139816 C2.93621538,4.139816 2.39990769,3.605296 2.39990769,2.943816 C2.39990769,2.282336 2.93621538,1.747816 3.59990769,1.747816 L3.59990769,1.747816 Z M7.19990769,1.747816 C7.8636,1.747816 8.39990769,2.282336 8.39990769,2.943816 C8.39990769,3.605296 7.8636,4.139816 7.19990769,4.139816 C6.53621538,4.139816 5.99990769,3.605296 5.99990769,2.943816 C5.99990769,2.282336 6.53621538,1.747816 7.19990769,1.747816 L7.19990769,1.747816 Z M23.9999077,5.338576 L23.9999077,2.943816 C23.9999077,1.624536 22.9245231,0.551816 21.5999077,0.551816 L2.39990769,0.551816 C1.07621538,0.551816 -9.23076923e-05,1.624536 -9.23076923e-05,2.943816 L-9.23076923e-05,5.338576 L23.9999077,5.338576 Z" id="Fill-1" fill="#FFFFFF" mask="url(#mask-2)"></path>
                    </g>
                    <mask id="mask-4" fill="white">
                        <use xlink:href="#path-3"></use>
                    </mask>
                    <g id="Clip-5"></g>
                    <path d="M13.2,18.86368 L19.2,18.86368 L19.2,16.47168 L13.2,16.47168 L13.2,18.86368 Z M6.84830769,19.70916 L5.15169231,18.0182 L7.90338462,15.27568 L5.15169231,12.53316 L6.84830769,10.8422 L11.2966154,15.27568 L6.84830769,19.70916 Z M0,6.90184 L0,20.056 C0,21.37528 1.07630769,22.448 2.4,22.448 L21.6,22.448 C22.9246154,22.448 24,21.37528 24,20.056 L24,6.90184 L0,6.90184 Z" id="Fill-4" fill="#FFFFFF" mask="url(#mask-4)"></path>
                </g>
            </g>
        </g>
    </g>
</svg>