<?xml version="1.0" encoding="UTF-8"?>
<svg width="25px" height="24px" viewBox="0 0 25 24" version="1.1" xmlns="http://www.w3.org/2000/svg" xmlns:xlink="http://www.w3.org/1999/xlink">
    <!-- Generator: sketchtool 63.1 (101010) - https://sketch.com -->
    <title>E0A4DD7F-C53A-41F0-B9BF-BF9B709D8A98</title>
    <desc>Created with sketchtool.</desc>
    <defs>
        <polygon id="path-1" points="0 0 25 0 25 24 0 24"></polygon>
    </defs>
    <g id="Page-1" stroke="none" stroke-width="1" fill="none" fill-rule="evenodd">
        <g id="Artboard-Copy-35" transform="translate(-981.000000, -3437.000000)">
            <g id="Icon:-Built-in-log" transform="translate(981.000000, 3437.000000)">
                <g id="Group-3">
                    <mask id="mask-2" fill="white">
                        <use xlink:href="#path-1"></use>
                    </mask>
                    <g id="Clip-2"></g>
                    <path d="M20.7883333,8.8750127 L19.5383333,11.3577749 C19.465,11.5026027 19.3183333,11.586189 19.1658333,11.586189 C19.1033333,11.586189 19.0391667,11.57212 18.9791667,11.5423269 C18.7733333,11.439706 18.69,11.1914298 18.7925,10.9870157 L20.0425,8.50425354 C20.1458333,8.29901187 20.395,8.21708072 20.6016667,8.31887397 C20.8083333,8.4214948 20.8916667,8.67059861 20.7883333,8.8750127 M18.705,8.8750127 L17.455,11.3577749 C17.3816667,11.5026027 17.235,11.586189 17.0825,11.586189 C17.02,11.586189 16.9558333,11.57212 16.8958333,11.5423269 C16.69,11.439706 16.6066667,11.1914298 16.7091667,10.9870157 L17.9591667,8.50425354 C18.0625,8.29901187 18.3125,8.21708072 18.5183333,8.31887397 C18.725,8.4214948 18.8083333,8.67059861 18.705,8.8750127 M16.6216667,8.8750127 L15.3716667,11.3577749 C15.2983333,11.5026027 15.1516667,11.586189 14.9991667,11.586189 C14.9366667,11.586189 14.8725,11.57212 14.8125,11.5423269 C14.6066667,11.439706 14.5233333,11.1914298 14.6258333,10.9870157 L15.8758333,8.50425354 C15.98,8.29901187 16.2291667,8.21708072 16.435,8.31887397 C16.6416667,8.4214948 16.725,8.67059861 16.6216667,8.8750127 M2.5,22.3448252 C2.04,22.3448252 1.66666667,21.9732385 1.66666667,21.5172378 C1.66666667,21.0612371 2.04,20.6896504 2.5,20.6896504 C2.95833333,20.6896504 3.33333333,21.0612371 3.33333333,21.5172378 C3.33333333,21.9732385 2.95833333,22.3448252 2.5,22.3448252 M21.46,0.470035077 C21.33,0.394724623 21.1708333,0.393897036 21.0425,0.468379902 C20.9125,0.54203518 20.8333333,0.678587101 20.8333333,0.827552833 L20.8333333,4.55169613 C20.8333333,5.48852506 20.0891667,6.62066462 19.1666667,6.62066462 L12.0833333,6.62066462 C11.8525,6.62066462 11.6666667,6.8060442 11.6666667,7.03445832 C11.6666667,7.6402523 11.6758333,8.07308051 11.7991667,8.57873641 L0.7725,19.4805452 C0.275,19.9795804 0,20.6449607 0,21.3517203 C0,22.8115845 1.18666667,24 2.64583333,24 C3.3525,24 4.01666667,23.7244134 4.52083333,23.2195851 L12.8875,14.6615038 C13.8008333,13.7461921 15.015,13.2413638 16.3058333,13.2413638 L18.3333333,13.2413638 C22.0708333,13.2413638 25,10.3828769 25,6.73321651 C25,4.29514403 23.5108333,1.66093334 21.46,0.470035077 M12.5,4.96548983 L16.25,4.96548983 C16.4791667,4.96548983 16.6666667,4.78011025 16.6666667,4.55169613 L16.6666667,0.413759133 C16.6666667,0.278862387 16.6008333,0.153069103 16.49,0.0752758873 C16.3783333,-0.00251732819 16.2366667,-0.020724251 16.1091667,0.0239654686 C14.255,0.681069863 12.7941667,2.28576183 12.1016667,4.42507526 C12.0608333,4.55086854 12.0841667,4.68824805 12.1616667,4.79500682 C12.2408333,4.90259318 12.3666667,4.96548983 12.5,4.96548983" id="Fill-1" fill="#FFFFFF" mask="url(#mask-2)"></path>
                </g>
            </g>
        </g>
    </g>
</svg>