<?xml version="1.0" encoding="UTF-8"?>
<svg width="23px" height="26px" viewBox="0 0 23 26" version="1.1" xmlns="http://www.w3.org/2000/svg" xmlns:xlink="http://www.w3.org/1999/xlink">
    <!-- Generator: sketchtool 63.1 (101010) - https://sketch.com -->
    <title>10D65A2D-8D0E-40F9-97EF-96A918A4CC46</title>
    <desc>Created with sketchtool.</desc>
    <defs>
        <polygon id="path-1" points="0.60039 0.312 8.39979 0.312 8.39979 1.5589 0.60039 1.5589"></polygon>
        <polygon id="path-3" points="0.000265384615 0.717155556 23 0.717155556 23 24 0.000265384615 24"></polygon>
    </defs>
    <g id="Page-1" stroke="none" stroke-width="1" fill="none" fill-rule="evenodd">
        <g id="Artboard-Copy-35" transform="translate(-981.000000, -3842.000000)">
            <g id="Icon:-Fast-Deterministic.." transform="translate(981.000000, 3842.000000)">
                <g id="Group-3" transform="translate(7.000000, 0.000000)">
                    <mask id="mask-2" fill="white">
                        <use xlink:href="#path-1"></use>
                    </mask>
                    <g id="Clip-2"></g>
                    <path d="M1.15749,1.5589 L7.84269,1.5589 C8.15139,1.5589 8.39979,1.2799 8.39979,0.9349 C8.39979,0.5909 8.15139,0.3119 7.84269,0.3119 L1.15749,0.3119 C0.84879,0.3119 0.60039,0.5909 0.60039,0.9349 C0.60039,1.2799 0.84879,1.5589 1.15749,1.5589" id="Fill-1" fill="#FFFFFF" mask="url(#mask-2)"></path>
                </g>
                <g id="Group-6" transform="translate(0.000000, 2.000000)">
                    <mask id="mask-4" fill="white">
                        <use xlink:href="#path-3"></use>
                    </mask>
                    <g id="Clip-5"></g>
                    <path d="M13.8480346,20.6504889 C13.7967269,20.6664889 13.74365,20.6736 13.6905731,20.6736 C13.4189962,20.6736 13.1881115,20.4727111 13.1483038,20.1998222 C13.1084962,19.9278222 13.2730346,19.6673778 13.5339962,19.5891556 C16.5770731,18.5216 18.61965,15.6193778 18.61965,12.3589333 C18.61965,9.0976 16.5770731,6.19537778 13.5339962,5.12871111 C13.2429577,5.04071111 13.0793038,4.73137778 13.1659962,4.43804444 C13.2526885,4.14471111 13.5578808,3.97848889 13.8480346,4.06648889 C17.35465,5.27448889 19.7130346,8.60782222 19.7130346,12.3589333 C19.7130346,16.1091556 17.35465,19.4433778 13.8480346,20.6504889 M12.0478423,13.9198222 L12.0478423,20.1189333 C12.0478423,20.4256 11.8019192,20.6736 11.5002654,20.6736 C11.1977269,20.6736 10.9526885,20.4256 10.9526885,20.1189333 L10.9526885,13.9198222 C10.1981115,13.6496 9.74518846,12.8691556 9.88141923,12.0709333 C10.0158808,11.2718222 10.6996885,10.6887111 11.5002654,10.6887111 C12.2999577,10.6887111 12.9837654,11.2718222 13.1191115,12.0709333 C13.2544577,12.8691556 12.8015346,13.6496 12.0478423,13.9198222 M11.5002654,0.717155556 C5.14872692,0.717155556 0.000265384615,5.92871111 0.000265384615,12.3589333 C0.000265384615,18.7873778 5.14872692,24.0007111 11.5002654,24.0007111 C17.8509192,24.0007111 23.0002654,18.7873778 23.0002654,12.3589333 C23.0002654,5.92871111 17.8509192,0.717155556 11.5002654,0.717155556" id="Fill-4" fill="#FFFFFF" mask="url(#mask-4)"></path>
                </g>
                <path d="M22,2 C22.552504,2 23,2.44809619 23,2.9995992 C23,3.55190381 22.552504,4 22,4 C21.447496,4 21,3.55190381 21,2.9995992 C21,2.44809619 21.447496,2 22,2" id="Fill-7" fill="#FFFFFF"></path>
            </g>
        </g>
    </g>
</svg>