<?xml version="1.0" encoding="UTF-8"?>
<svg width="25px" height="29px" viewBox="0 0 25 29" version="1.1" xmlns="http://www.w3.org/2000/svg" xmlns:xlink="http://www.w3.org/1999/xlink">
    <!-- Generator: sketchtool 63.1 (101010) - https://sketch.com -->
    <title>67A277C5-139A-4D08-A7F9-0A4CD7F336CD</title>
    <desc>Created with sketchtool.</desc>
    <defs>
        <polygon id="path-1" points="0 0.50840625 24.91875 0.50840625 24.91875 17.9555312 0 17.9555312"></polygon>
        <polygon id="path-3" points="0 0.50840625 24.9187052 0.50840625 24.9187052 17.9555312 0 17.9555312"></polygon>
    </defs>
    <g id="Page-1" stroke="none" stroke-width="1" fill="none" fill-rule="evenodd">
        <g id="Artboard-Copy-35" transform="translate(-980.000000, -3708.000000)">
            <g id="Upgradable-Icon-Copy-3" transform="translate(980.000000, 3708.000000)">
                <g id="Group-17">
                    <path d="M12.4597321,1.24609375 C10.4445536,1.24609375 8.198125,6.61925 8.198125,14.3305312 C8.198125,22.0409063 10.4445536,27.4140625 12.4597321,27.4140625 C14.4749107,27.4140625 16.7204464,22.0409063 16.7204464,14.3305312 C16.7204464,6.61925 14.4749107,1.24609375 12.4597321,1.24609375 M12.4597321,28.6601562 C8.90080357,28.6601562 6.98026786,21.2778437 6.98026786,14.3305312 C6.98026786,7.38321875 8.90080357,0 12.4597321,0 C16.0177679,0 17.9383036,7.38321875 17.9383036,14.3305312 C17.9383036,21.2778437 16.0177679,28.6601562 12.4597321,28.6601562" id="Fill-1" fill="#FFFFFF"></path>
                    <g id="Group-5" transform="translate(0.000000, 5.097656)">
                        <mask id="mask-2" fill="white">
                            <use xlink:href="#path-1"></use>
                        </mask>
                        <g id="Clip-4"></g>
                        <path d="M3.93401786,1.7545 C2.633125,1.7545 1.72776786,2.08709375 1.38848214,2.69065625 C0.890267857,3.5724375 1.49383929,5.19915625 3.00276786,7.0379375 C4.689375,9.09421875 7.29116071,11.2148438 10.3295536,13.0092188 C14.251875,15.3274063 18.2358036,16.7094375 20.9858036,16.7094375 C22.2875893,16.7094375 23.1920536,16.3768438 23.5313393,15.7741875 C24.0295536,14.8924063 23.426875,13.2665938 21.9179464,11.4269063 C20.2313393,9.370625 17.6295536,7.25 14.5902679,5.455625 C10.6688393,3.1374375 6.68491071,1.7545 3.93401786,1.7545 M20.9849107,17.9555312 C18.0295536,17.9555312 13.8179464,16.5100625 9.71973214,14.0885625 C6.56169643,12.2225938 3.84473214,10.0040937 2.06973214,7.8390625 C0.161696429,5.513625 -0.453482143,3.46459375 0.334017857,2.06715625 C0.735803571,1.35575 1.68491071,0.50840625 3.93401786,0.50840625 C6.889375,0.50840625 11.1000893,1.9556875 15.1983036,4.37628125 C18.3572321,6.24225 21.0733036,8.46075 22.8491964,10.6257812 C24.7563393,12.9503125 25.3724107,15.0011563 24.5849107,16.3976875 C24.1849107,17.1090938 23.2340179,17.9555312 20.9849107,17.9555312" id="Fill-3" fill="#FFFFFF" mask="url(#mask-2)"></path>
                    </g>
                    <g id="Group-8" transform="translate(0.000000, 5.097656)">
                        <mask id="mask-4" fill="white">
                            <use xlink:href="#path-3"></use>
                        </mask>
                        <g id="Clip-7"></g>
                        <path d="M20.9846429,1.7545 C18.2748214,1.7545 14.1908929,3.17278125 10.3283929,5.455625 C7.29089286,7.25 4.68910714,9.370625 3.00160714,11.4269063 C1.49357143,13.2665938 0.889107143,14.8915 1.38732143,15.7741875 C1.7275,16.3768438 2.63107143,16.7094375 3.93285714,16.7094375 C6.64357143,16.7094375 10.7275,15.2920625 14.5891071,13.0092188 C17.6266071,11.2148438 20.2283929,9.09421875 21.9158929,7.0379375 C23.4239286,5.19915625 24.0283929,3.57425 23.5310714,2.69065625 C23.1908929,2.08709375 22.2864286,1.7545 20.9846429,1.7545 M3.93375,17.9555312 C1.68553571,17.9555312 0.735535714,17.1090938 0.33375,16.3976875 C-0.45375,15.0011563 0.162321429,12.9503125 2.06946429,10.6257812 C3.84535714,8.46075 6.56232143,6.24225 9.72035714,4.37628125 C13.8185714,1.9556875 18.0292857,0.50840625 20.9846429,0.50840625 C23.23375,0.50840625 24.1828571,1.35575 24.5846429,2.06715625 C25.3721429,3.46459375 24.7569643,5.513625 22.8489286,7.8390625 C21.0739286,10.0040937 18.3578571,12.2225938 15.1989286,14.0885625 C11.1007143,16.5100625 6.88910714,17.9555312 3.93375,17.9555312" id="Fill-6" fill="#FFFFFF" mask="url(#mask-4)"></path>
                    </g>
                    <path d="M12.4597321,11.2148438 C14.1409821,11.2148438 15.5034821,12.6095625 15.5034821,14.3305312 C15.5034821,16.0505938 14.1409821,17.4453125 12.4597321,17.4453125 C10.7784821,17.4453125 9.41598214,16.0505938 9.41598214,14.3305312 C9.41598214,12.6095625 10.7784821,11.2148438 12.4597321,11.2148438" id="Fill-9" fill="#FFFFFF"></path>
                    <path d="M15.5036607,2.4921875 C16.1759821,2.4921875 16.720625,3.0504375 16.720625,3.73828125 C16.720625,4.426125 16.1759821,4.984375 15.5036607,4.984375 C14.8304464,4.984375 14.2858036,4.426125 14.2858036,3.73828125 C14.2858036,3.0504375 14.8304464,2.4921875 15.5036607,2.4921875" id="Fill-11" fill="#FFFFFF"></path>
                    <path d="M1.50133929,9.96875 C2.17455357,9.96875 2.71919643,10.527 2.71919643,11.2148438 C2.71919643,11.9026875 2.17455357,12.4609375 1.50133929,12.4609375 C0.829017857,12.4609375 0.284375,11.9026875 0.284375,11.2148438 C0.284375,10.527 0.829017857,9.96875 1.50133929,9.96875" id="Fill-13" fill="#FFFFFF"></path>
                    <path d="M20.9820536,21.1835938 C21.654375,21.1835938 22.1999107,21.7409375 22.1999107,22.4296875 C22.1999107,23.1184375 21.654375,23.6757812 20.9820536,23.6757812 C20.3097321,23.6757812 19.7650893,23.1184375 19.7650893,22.4296875 C19.7650893,21.7409375 20.3097321,21.1835938 20.9820536,21.1835938" id="Fill-15" fill="#FFFFFF"></path>
                </g>
            </g>
        </g>
    </g>
</svg>