<?xml version="1.0" encoding="UTF-8"?>
<svg width="23px" height="24px" viewBox="0 0 23 24" version="1.1" xmlns="http://www.w3.org/2000/svg" xmlns:xlink="http://www.w3.org/1999/xlink">
    <!-- Generator: sketchtool 63.1 (101010) - https://sketch.com -->
    <title>497659B2-0E20-479C-B9CF-A6AE5BD26B35</title>
    <desc>Created with sketchtool.</desc>
    <defs>
        <polygon id="path-1" points="0.36747 0.377014286 17.9172 0.377014286 17.9172 18.9997286 0.36747 18.9997286"></polygon>
    </defs>
    <g id="Page-1" stroke="none" stroke-width="1" fill="none" fill-rule="evenodd">
        <g id="Artboard-Copy-35" transform="translate(-983.000000, -4671.000000)">
            <g id="Icon:-Incentives" transform="translate(983.000000, 4671.000000)">
                <g id="Group-3" transform="translate(5.000000, 5.000000)">
                    <mask id="mask-2" fill="white">
                        <use xlink:href="#path-1"></use>
                    </mask>
                    <g id="Clip-2"></g>
                    <path d="M10.11717,9.19844286 C14.91147,9.19844286 17.91747,3.7255381 17.91747,0.377014286 C15.92667,2.37744286 11.41677,0.907204762 9.14247,1.35687143 C6.82047,1.80382381 5.16627,3.88296667 5.24187,6.25796667 L5.24187,13.1432048 C2.48157,13.3965381 0.36747,15.7235857 0.36747,18.5102524 L0.36747,18.9997286 L11.09277,18.9997286 L11.09277,18.5102524 C11.09187,15.7235857 8.97777,13.3965381 6.21747,13.1432048 L6.21747,7.95620476 C7.34607,8.7913 8.71677,9.22739524 10.11717,9.19844286" id="Fill-1" fill="#2A2825" mask="url(#mask-2)"></path>
                </g>
                <path d="M10,13 C10,3.04068735 1.93143348,4.79088262 1.93143348,0 C0.886904624,1.03571682 0.33857352,2.93637719 0.0620805867,4.92380885 C-0.193931389,6.82539232 0.348813999,8.74636086 1.56184529,10.2399347 C2.77487657,11.7335085 4.55206516,12.6686075 6.47913712,12.8264574 C7.68565174,12.9298445 8.90799256,13 10,13" id="Fill-4" fill="#000000"></path>
            </g>
        </g>
    </g>
</svg>