<?xml version="1.0" encoding="UTF-8"?>
<svg width="27px" height="21px" viewBox="0 0 27 21" version="1.1" xmlns="http://www.w3.org/2000/svg" xmlns:xlink="http://www.w3.org/1999/xlink">
    <!-- Generator: sketchtool 63.1 (101010) - https://sketch.com -->
    <title>3AAD164C-D913-4DBD-A4DF-A46BC063314D</title>
    <desc>Created with sketchtool.</desc>
    <defs>
        <polygon id="path-1" points="0 0 27 0 27 21 0 21"></polygon>
    </defs>
    <g id="Page-1" stroke="none" stroke-width="1" fill="none" fill-rule="evenodd">
        <g id="Artboard-Copy-35" transform="translate(-979.000000, -4228.000000)">
            <g id="Icons:-Human-readable" transform="translate(979.000000, 4228.000000)">
                <mask id="mask-2" fill="white">
                    <use xlink:href="#path-1"></use>
                </mask>
                <g id="Clip-2"></g>
                <path d="M23.22,16.8 L18.9,16.8 C18.6021,16.8 18.3609,16.564625 18.3609,16.274125 C18.3609,15.9845 18.6021,15.75 18.9,15.75 L23.22,15.75 C23.5188,15.75 23.7609,15.9845 23.7609,16.274125 C23.7609,16.564625 23.5188,16.8 23.22,16.8 L23.22,16.8 Z M16.2,16.8 L3.78,16.8 C3.4821,16.8 3.24,16.564625 3.24,16.274125 C3.24,15.9845 3.4821,15.75 3.78,15.75 L16.2,15.75 C16.4979,15.75 16.74,15.9845 16.74,16.274125 C16.74,16.564625 16.4979,16.8 16.2,16.8 L16.2,16.8 Z M3.24,4.2 C3.24,3.619875 3.7233,3.15 4.32,3.15 L8.64,3.15 C9.2367,3.15 9.72,3.619875 9.72,4.2 L9.72,7.35 C9.72,7.92925 9.2367,8.4 8.64,8.4 L4.32,8.4 C3.7233,8.4 3.24,7.92925 3.24,7.35 L3.24,4.2 Z M25.38,0 L1.62,0 C0.7254,0.000875 0.0009,0.70525 0,1.575 L0,19.425 C0.0009,20.293875 0.7254,20.999125 1.62,21 L25.38,21 C26.2746,20.999125 26.9991,20.293875 27,19.425 L27,1.575 C26.9991,0.70525 26.2746,0.000875 25.38,0 L25.38,0 Z" id="Fill-1" fill="#000000" mask="url(#mask-2)"></path>
            </g>
        </g>
    </g>
</svg>